PathFileType	4	(X/Y/Z)	/Users/itak/Documents/Research/Walk-IL/dataset/trc/00522_00183.trc
DataRate	CameraRate	NumFrames	NumMarkers	Units	OrigDataRate	OrigDataStartFrame	OrigNumFrames
100.000000	100.000000	4	54	mm	100.000000	196	524
Frame#	Time	RPSI			LPSI			L3			STRN			T10			C7			CLAV			RBAK			LBAK			LSHO			LUPA			LAEL			LAOL			LWTS			LWPS			LFRA			LIFD			LHPS			LHTS			RSHO			RUPA			RAEL			RAOL			RWTS			RWPS			RFRA			RIFD			RHTS			RHPS			RBHD			LFHD			RFHD			LBHD			LHIP			RHIP			RASI			LASI			LKNE			LTHI			LANK			LTIP			LTOE			LMT1			LMT5			LHEE			RKNE			RANK			RTIP			RTOE			RMT1			RMT5			RHEE			RTHI			*53			
		X1	Y1	Z1	X2	Y2	Z2	X3	Y3	Z3	X4	Y4	Z4	X5	Y5	Z5	X6	Y6	Z6	X7	Y7	Z7	X8	Y8	Z8	X9	Y9	Z9	X10	Y10	Z10	X11	Y11	Z11	X12	Y12	Z12	X13	Y13	Z13	X14	Y14	Z14	X15	Y15	Z15	X16	Y16	Z16	X17	Y17	Z17	X18	Y18	Z18	X19	Y19	Z19	X20	Y20	Z20	X21	Y21	Z21	X22	Y22	Z22	X23	Y23	Z23	X24	Y24	Z24	X25	Y25	Z25	X26	Y26	Z26	X27	Y27	Z27	X28	Y28	Z28	X29	Y29	Z29	X30	Y30	Z30	X31	Y31	Z31	X32	Y32	Z32	X33	Y33	Z33	X34	Y34	Z34	X35	Y35	Z35	X36	Y36	Z36	X37	Y37	Z37	X38	Y38	Z38	X39	Y39	Z39	X40	Y40	Z40	X41	Y41	Z41	X42	Y42	Z42	X43	Y43	Z43	X44	Y44	Z44	X45	Y45	Z45	X46	Y46	Z46	X47	Y47	Z47	X48	Y48	Z48	X49	Y49	Z49	X50	Y50	Z50	X51	Y51	Z51	X52	Y52	Z52	X53	Y53	Z53	X54	Y54	Z54	

197	1.96	-782.9816284179688	954.7064819335938	-287.1441650390625	-759.7715454101562	944.9293212890625	-408.5000305175781	-767.1482543945312	1027.86669921875	-352.3722229003906	-539.5370483398438	1182.59326171875	-314.7786865234375	-771.4230346679688	1133.530639648438	-346.4335021972656	-715.82275390625	1360.69921875	-334.8929443359375	-568.4776611328125	1280.201904296875	-316.8400268554688	-781.1826782226562	1240.69140625	-257.8096313476562	-731.707763671875	1308.42626953125	-425.8632507324219	-626.8060302734375	1355.193481445312	-484.2591552734375	-633.9845581054688	1230.759399414062	-547.9661865234375	-622.7391357421875	1021.039672851562	-576.257080078125	-703.700927734375	1012.500366210938	-518.3343505859375	-540.1611938476562	835.3899536132812	-530.5902099609375	-611.7979125976562	797.7384033203125	-579.5213623046875	-604.980224609375	936.9276733398438	-577.5579223632812	-531.6851196289062	679.73828125	-521.2438354492188	-585.3462524414062	745.2378540039062	-573.567138671875	-525.8229370117188	759.2066040039062	-549.4113159179688	-684.0606689453125	1353.395874023438	-182.0473937988281	-715.5311889648438	1290.068359375	-129.2205963134766	-760.0719604492188	1029.813842773438	-82.25359344482422	-798.7896118164062	1015.316101074219	-133.9184722900391	-681.0325927734375	815.6214599609375	-69.70529174804688	-771.2385864257812	805.6837158203125	-52.5951042175293	-766.4138793945312	975.7833251953125	-72.93418121337891	-711.6744995117188	658.1451416015625	-58.23628997802734	-693.4232788085938	724.322509765625	-37.64555358886719	-762.9251708984375	734.5753173828125	-40.62849426269531	-690.5090942382812	1506.685791015625	-242.2610168457031	-515.6605834960938	1568.608154296875	-318.4194030761719	-565.7942504882812	1549.918701171875	-202.7572479248047	-640.051513671875	1528.1181640625	-394.0314636230469	-626.3524780273438	869.0950317382812	-511.6006774902344	-700.4188842773438	859.7769165039062	-141.6674194335938	-591.7803955078125	908.9907836914062	-188.36962890625	-551.7039184570312	912.3634643554688	-427.0203857421875	-504.2081298828125	463.1907653808594	-452.8265686035156	-539.1881103515625	618.0308837890625	-477.5772399902344	-842.7955322265625	209.8853454589844	-546.6053466796875	-597.2586059570312	363.1470947265625	-484.4480285644531	-744.1767578125	52.74404144287109	-470.7950134277344	-793.5165405273438	108.4790878295898	-444.2547912597656	-784.5784301757812	119.3119125366211	-547.941650390625	-881.282958984375	242.0452423095703	-488.9169616699219	-639.0911865234375	472.6298828125	-212.9826202392578	-714.9105224609375	50.46719360351562	-288.9583435058594	-628.9050903320312	327.028076171875	-243.4211120605469	-509.2547607421875	41.60765838623047	-283.6943664550781	-563.514892578125	45.8564338684082	-336.1345825195312	-608.5375366210938	45.53539657592773	-249.3233947753906	-754.8382568359375	40.53573226928711	-346.9675903320312	-660.9658203125	728.6890869140625	-145.2206420898438	nan	nan	nan	
198	1.97	-775.6792602539062	954.98876953125	-285.0074768066406	-751.7649536132812	945.5366821289062	-406.259521484375	-759.4694213867188	1028.223266601562	-349.5872802734375	-532.4832153320312	1183.658813476562	-311.2754821777344	-764.2025146484375	1133.885986328125	-343.7482299804688	-709.1490478515625	1361.162475585938	-332.0325317382812	-561.6686401367188	1281.185302734375	-313.578857421875	-774.2874145507812	1241.02978515625	-255.0140838623047	-724.7113647460938	1308.83642578125	-422.9994506835938	-619.84716796875	1355.76708984375	-481.1691284179688	-626.7235107421875	1231.347290039062	-544.903076171875	-614.635009765625	1021.666442871094	-572.92724609375	-695.72998046875	1012.81298828125	-515.2090454101562	-530.24951171875	837.2322387695312	-526.6710205078125	-601.30908203125	798.4171142578125	-575.4949340820312	-596.214111328125	937.90966796875	-574.0192260742188	-519.7720336914062	681.7299194335938	-516.6195678710938	-574.2224731445312	746.315185546875	-569.26611328125	-514.9076538085938	761.165283203125	-545.1102905273438	-677.7152709960938	1354.23583984375	-179.2260437011719	-708.9059448242188	1290.926147460938	-126.1683502197266	-750.9485473632812	1030.382690429688	-77.91673278808594	-789.8240356445312	1015.217468261719	-129.2514495849609	-668.7613525390625	817.6218872070312	-64.94724273681641	-758.6679077148438	806.2312622070312	-46.94160079956055	-756.6326904296875	976.3106689453125	-68.30532073974609	-696.5030517578125	659.7246704101562	-51.96173477172852	-679.2977905273438	726.3555908203125	-32.09994506835938	-748.95654296875	735.3281860351562	-34.60731506347656	-683.7428588867188	1507.5517578125	-239.3829193115234	-508.4747009277344	1568.865112304688	-315.1663513183594	-558.9369506835938	1550.308959960938	-199.6047821044922	-632.7769165039062	1528.940795898438	-391.1241455078125	-616.7769165039062	870.5652465820312	-508.3528442382812	-694.4954833984375	859.54345703125	-139.1218109130859	-585.24560546875	908.99951171875	-184.5796203613281	-543.6123046875	913.7487182617188	-422.9071655273438	-487.2117919921875	467.4146728515625	-445.1463317871094	-525.269775390625	621.158447265625	-472.0600891113281	-817.9384765625	204.826904296875	-541.6237182617188	-577.6051025390625	365.5173645019531	-477.2818298339844	-712.8218994140625	52.68355941772461	-464.6660461425781	-765.1885375976562	105.7875747680664	-438.6589660644531	-755.5733032226562	117.1662673950195	-542.2202758789062	-858.3851928710938	235.2772521972656	-484.4002380371094	-636.8583984375	471.9988098144531	-210.8805999755859	-714.8994750976562	50.45688247680664	-288.9091796875	-627.9005737304688	326.5489807128906	-242.1227722167969	-509.2587585449219	41.53947067260742	-283.601806640625	-563.4978637695312	45.90412139892578	-335.9644470214844	-608.5446166992188	45.39955139160156	-249.1533050537109	-754.869140625	40.77210998535156	-346.914794921875	-655.8536376953125	728.2672729492188	-142.86962890625	nan	nan	nan	
199	1.98	-768.3796997070312	955.2111206054688	-282.8807373046875	-743.7540283203125	946.0547485351562	-404.0149230957031	-751.7283935546875	1028.489501953125	-346.7588195800781	-525.3844604492188	1184.611206054688	-307.7125549316406	-756.9034423828125	1134.124755859375	-341.035400390625	-702.4430541992188	1361.523315429688	-329.194091796875	-554.8472290039062	1282.0400390625	-310.2763061523438	-767.4325561523438	1241.278076171875	-252.2745666503906	-717.6509399414062	1309.140380859375	-420.1727600097656	-612.7880859375	1356.212036132812	-478.0591430664062	-619.3856201171875	1231.81884765625	-541.8482666015625	-606.5221557617188	1022.197326660156	-569.6942138671875	-687.77490234375	1013.037841796875	-512.1689453125	-520.4393310546875	838.9432373046875	-522.8699340820312	-590.9093017578125	799.0184326171875	-571.598388671875	-587.4852294921875	938.7858276367188	-570.602783203125	-508.0411682128906	683.6156616210938	-512.0669555664062	-563.220703125	747.3057250976562	-565.0650634765625	-504.142333984375	762.991455078125	-540.9136352539062	-671.4122924804688	1354.954833984375	-176.4060821533203	-702.36328125	1291.662963867188	-123.1435165405273	-741.9304809570312	1030.833984375	-73.61775970458984	-780.9533081054688	1015.014892578125	-124.6249847412109	-656.458740234375	819.6436767578125	-60.27350616455078	-745.9916381835938	806.6934204101562	-41.34634017944336	-746.9315795898438	976.7333984375	-63.72129821777344	-681.0343627929688	661.3439331054688	-45.91407012939453	-664.9893188476562	728.4107666015625	-26.72463607788086	-734.7826538085938	736.0048217773438	-28.72439193725586	-676.9622802734375	1508.353393554688	-236.5464324951172	-501.2586975097656	1569.022827148438	-311.9674987792969	-552.0726318359375	1550.67919921875	-196.5112152099609	-625.5013427734375	1529.580688476562	-388.2467956542969	-607.0001220703125	871.9488525390625	-505.0403137207031	-688.6039428710938	859.2344360351562	-136.6137237548828	-578.7308959960938	908.8446655273438	-180.8476715087891	-535.5369262695312	914.98681640625	-418.81494140625	-470.7003173828125	471.6807250976562	-437.3288269042969	-511.601806640625	624.3165893554688	-466.4489440917969	-792.5010986328125	198.8771362304688	-536.3364868164062	-558.134765625	367.6090393066406	-469.9413757324219	-680.5941162109375	52.29369354248047	-458.2350463867188	-735.9710083007812	102.5433349609375	-432.7404174804688	-725.8488159179688	114.4695892333984	-536.1713256835938	-834.8751220703125	227.3812408447266	-479.5647277832031	-634.5692749023438	471.3465270996094	-208.7645416259766	-714.8839111328125	50.46437835693359	-288.8590087890625	-626.818115234375	326.0667724609375	-240.8645935058594	-509.2580871582031	41.46981811523438	-283.5075988769531	-563.478759765625	45.94221496582031	-335.8046569824219	-608.5444946289062	45.27753829956055	-249.0050201416016	-754.918701171875	41.06167221069336	-346.8335571289062	-650.8231201171875	727.787841796875	-140.5412139892578	nan	nan	nan	
200	1.99	-761.1021728515625	955.3497314453125	-280.7782592773438	-735.7395629882812	946.4574584960938	-401.782958984375	-743.961669921875	1028.652099609375	-343.9134521484375	-518.25048828125	1185.424926757812	-304.1041259765625	-749.5357666015625	1134.242553710938	-338.3043518066406	-695.6854858398438	1361.767333984375	-326.3796081542969	-548.0082397460938	1282.739868164062	-306.9347229003906	-760.6124267578125	1241.420532226562	-249.5701293945312	-710.5177001953125	1309.324340820312	-417.3735961914062	-605.6203002929688	1356.511474609375	-474.9346313476562	-611.9592895507812	1232.157592773438	-538.7924194335938	-598.3760986328125	1022.612243652344	-566.5497436523438	-679.8110961914062	1013.154602050781	-509.2068176269531	-510.72705078125	840.4867553710938	-519.1734008789062	-580.5966796875	799.530517578125	-567.8432006835938	-578.7677612304688	939.5306396484375	-567.2940063476562	-496.5264587402344	685.346923828125	-507.6161193847656	-552.3458862304688	748.1912231445312	-560.9877319335938	-493.5252990722656	764.6521606445312	-536.8241577148438	-665.12939453125	1355.5283203125	-173.5747222900391	-695.8828125	1292.244262695312	-120.1407318115234	-732.9994506835938	1031.1376953125	-69.34458160400391	-772.1759643554688	1014.687438964844	-120.0234451293945	-644.12939453125	821.6470947265625	-55.69443130493164	-733.2068481445312	807.050537109375	-35.81885147094727	-737.2879028320312	977.0174560546875	-59.17654037475586	-665.306884765625	662.9738159179688	-40.11751556396484	-650.5160522460938	730.4572143554688	-21.53523445129395	-720.4170532226562	736.587890625	-22.99140357971191	-670.157470703125	1509.0595703125	-233.7545471191406	-494.0144958496094	1569.086547851562	-308.8180541992188	-545.2011108398438	1551.029052734375	-193.4768524169922	-618.207763671875	1530.00830078125	-385.4005126953125	-597.07568359375	873.2010498046875	-501.6708984375	-682.7742919921875	858.846435546875	-134.1500549316406	-572.2761840820312	908.533935546875	-177.1766204833984	-527.4749755859375	916.0562133789062	-414.7369079589844	-454.6834411621094	475.9352722167969	-429.4234008789062	-498.2063903808594	627.4510498046875	-460.7687683105469	-766.4942016601562	192.1412353515625	-530.703857421875	-538.8702392578125	369.3927917480469	-462.4769592285156	-647.6305541992188	51.62951278686523	-451.5537414550781	-705.9068603515625	98.83452606201172	-426.4951477050781	-695.5075073242188	111.3170013427734	-529.8113403320312	-810.7183837890625	218.4583129882812	-474.336669921875	-632.1885375976562	470.6678771972656	-206.6561126708984	-714.861328125	50.49147415161133	-288.8123474121094	-625.6234741210938	325.5744323730469	-239.6690368652344	-509.2520751953125	41.40021133422852	-283.4144897460938	-563.4573364257812	45.96753311157227	-335.6611328125	-608.5375366210938	45.17164611816406	-248.8819580078125	-754.974365234375	41.39681243896484	-346.7450256347656	-645.8653564453125	727.2467651367188	-138.2295074462891	nan	nan	nan	
